%TF.GenerationSoftware,KiCad,Pcbnew,9.0.2-9.0.2-0~ubuntu24.04.1*%
%TF.CreationDate,2025-07-04T20:19:56-04:00*%
%TF.ProjectId,PCBbot,50434262-6f74-42e6-9b69-6361645f7063,rev?*%
%TF.SameCoordinates,Original*%
%TF.FileFunction,Legend,Bot*%
%TF.FilePolarity,Positive*%
%FSLAX46Y46*%
G04 Gerber Fmt 4.6, Leading zero omitted, Abs format (unit mm)*
G04 Created by KiCad (PCBNEW 9.0.2-9.0.2-0~ubuntu24.04.1) date 2025-07-04 20:19:56*
%MOMM*%
%LPD*%
G01*
G04 APERTURE LIST*
%ADD10C,0.150000*%
%ADD11C,0.100000*%
%ADD12C,0.120000*%
G04 APERTURE END LIST*
D10*
X92954819Y-137738095D02*
X93764342Y-137738095D01*
X93764342Y-137738095D02*
X93859580Y-137785714D01*
X93859580Y-137785714D02*
X93907200Y-137833333D01*
X93907200Y-137833333D02*
X93954819Y-137928571D01*
X93954819Y-137928571D02*
X93954819Y-138119047D01*
X93954819Y-138119047D02*
X93907200Y-138214285D01*
X93907200Y-138214285D02*
X93859580Y-138261904D01*
X93859580Y-138261904D02*
X93764342Y-138309523D01*
X93764342Y-138309523D02*
X92954819Y-138309523D01*
X93288152Y-139214285D02*
X93954819Y-139214285D01*
X92907200Y-138976190D02*
X93621485Y-138738095D01*
X93621485Y-138738095D02*
X93621485Y-139357142D01*
X121854819Y-137888095D02*
X122664342Y-137888095D01*
X122664342Y-137888095D02*
X122759580Y-137935714D01*
X122759580Y-137935714D02*
X122807200Y-137983333D01*
X122807200Y-137983333D02*
X122854819Y-138078571D01*
X122854819Y-138078571D02*
X122854819Y-138269047D01*
X122854819Y-138269047D02*
X122807200Y-138364285D01*
X122807200Y-138364285D02*
X122759580Y-138411904D01*
X122759580Y-138411904D02*
X122664342Y-138459523D01*
X122664342Y-138459523D02*
X121854819Y-138459523D01*
X121854819Y-139364285D02*
X121854819Y-139173809D01*
X121854819Y-139173809D02*
X121902438Y-139078571D01*
X121902438Y-139078571D02*
X121950057Y-139030952D01*
X121950057Y-139030952D02*
X122092914Y-138935714D01*
X122092914Y-138935714D02*
X122283390Y-138888095D01*
X122283390Y-138888095D02*
X122664342Y-138888095D01*
X122664342Y-138888095D02*
X122759580Y-138935714D01*
X122759580Y-138935714D02*
X122807200Y-138983333D01*
X122807200Y-138983333D02*
X122854819Y-139078571D01*
X122854819Y-139078571D02*
X122854819Y-139269047D01*
X122854819Y-139269047D02*
X122807200Y-139364285D01*
X122807200Y-139364285D02*
X122759580Y-139411904D01*
X122759580Y-139411904D02*
X122664342Y-139459523D01*
X122664342Y-139459523D02*
X122426247Y-139459523D01*
X122426247Y-139459523D02*
X122331009Y-139411904D01*
X122331009Y-139411904D02*
X122283390Y-139364285D01*
X122283390Y-139364285D02*
X122235771Y-139269047D01*
X122235771Y-139269047D02*
X122235771Y-139078571D01*
X122235771Y-139078571D02*
X122283390Y-138983333D01*
X122283390Y-138983333D02*
X122331009Y-138935714D01*
X122331009Y-138935714D02*
X122426247Y-138888095D01*
X78854819Y-137688095D02*
X79664342Y-137688095D01*
X79664342Y-137688095D02*
X79759580Y-137735714D01*
X79759580Y-137735714D02*
X79807200Y-137783333D01*
X79807200Y-137783333D02*
X79854819Y-137878571D01*
X79854819Y-137878571D02*
X79854819Y-138069047D01*
X79854819Y-138069047D02*
X79807200Y-138164285D01*
X79807200Y-138164285D02*
X79759580Y-138211904D01*
X79759580Y-138211904D02*
X79664342Y-138259523D01*
X79664342Y-138259523D02*
X78854819Y-138259523D01*
X78854819Y-138640476D02*
X78854819Y-139259523D01*
X78854819Y-139259523D02*
X79235771Y-138926190D01*
X79235771Y-138926190D02*
X79235771Y-139069047D01*
X79235771Y-139069047D02*
X79283390Y-139164285D01*
X79283390Y-139164285D02*
X79331009Y-139211904D01*
X79331009Y-139211904D02*
X79426247Y-139259523D01*
X79426247Y-139259523D02*
X79664342Y-139259523D01*
X79664342Y-139259523D02*
X79759580Y-139211904D01*
X79759580Y-139211904D02*
X79807200Y-139164285D01*
X79807200Y-139164285D02*
X79854819Y-139069047D01*
X79854819Y-139069047D02*
X79854819Y-138783333D01*
X79854819Y-138783333D02*
X79807200Y-138688095D01*
X79807200Y-138688095D02*
X79759580Y-138640476D01*
D11*
X116833333Y-41457419D02*
X116833333Y-42171704D01*
X116833333Y-42171704D02*
X116880952Y-42314561D01*
X116880952Y-42314561D02*
X116976190Y-42409800D01*
X116976190Y-42409800D02*
X117119047Y-42457419D01*
X117119047Y-42457419D02*
X117214285Y-42457419D01*
X115928571Y-41790752D02*
X115928571Y-42457419D01*
X116166666Y-41409800D02*
X116404761Y-42124085D01*
X116404761Y-42124085D02*
X115785714Y-42124085D01*
D10*
X107254819Y-137838095D02*
X108064342Y-137838095D01*
X108064342Y-137838095D02*
X108159580Y-137885714D01*
X108159580Y-137885714D02*
X108207200Y-137933333D01*
X108207200Y-137933333D02*
X108254819Y-138028571D01*
X108254819Y-138028571D02*
X108254819Y-138219047D01*
X108254819Y-138219047D02*
X108207200Y-138314285D01*
X108207200Y-138314285D02*
X108159580Y-138361904D01*
X108159580Y-138361904D02*
X108064342Y-138409523D01*
X108064342Y-138409523D02*
X107254819Y-138409523D01*
X107254819Y-139361904D02*
X107254819Y-138885714D01*
X107254819Y-138885714D02*
X107731009Y-138838095D01*
X107731009Y-138838095D02*
X107683390Y-138885714D01*
X107683390Y-138885714D02*
X107635771Y-138980952D01*
X107635771Y-138980952D02*
X107635771Y-139219047D01*
X107635771Y-139219047D02*
X107683390Y-139314285D01*
X107683390Y-139314285D02*
X107731009Y-139361904D01*
X107731009Y-139361904D02*
X107826247Y-139409523D01*
X107826247Y-139409523D02*
X108064342Y-139409523D01*
X108064342Y-139409523D02*
X108159580Y-139361904D01*
X108159580Y-139361904D02*
X108207200Y-139314285D01*
X108207200Y-139314285D02*
X108254819Y-139219047D01*
X108254819Y-139219047D02*
X108254819Y-138980952D01*
X108254819Y-138980952D02*
X108207200Y-138885714D01*
X108207200Y-138885714D02*
X108159580Y-138838095D01*
D11*
%TO.C,U4*%
X94090000Y-133090000D02*
X94090000Y-135090000D01*
X94090000Y-133090000D02*
X96090000Y-133090000D01*
D12*
X94290000Y-133290000D02*
X94290000Y-137500000D01*
X94290000Y-133290000D02*
X100310000Y-133290000D01*
X94290000Y-139500000D02*
X94290000Y-141995000D01*
X96004500Y-143710000D02*
X94290000Y-141995000D01*
X98590000Y-143710000D02*
X96004500Y-143710000D01*
X98590000Y-143710000D02*
X100310000Y-141990000D01*
X100310000Y-133290000D02*
X100310000Y-137500000D01*
X100310000Y-139500000D02*
X100310000Y-141990000D01*
D11*
%TO.C,U6*%
X122990000Y-133240000D02*
X122990000Y-135240000D01*
X122990000Y-133240000D02*
X124990000Y-133240000D01*
D12*
X123190000Y-133440000D02*
X123190000Y-137650000D01*
X123190000Y-133440000D02*
X129210000Y-133440000D01*
X123190000Y-139650000D02*
X123190000Y-142145000D01*
X124904500Y-143860000D02*
X123190000Y-142145000D01*
X127490000Y-143860000D02*
X124904500Y-143860000D01*
X127490000Y-143860000D02*
X129210000Y-142140000D01*
X129210000Y-133440000D02*
X129210000Y-137650000D01*
X129210000Y-139650000D02*
X129210000Y-142140000D01*
D11*
%TO.C,U3*%
X79990000Y-133040000D02*
X79990000Y-135040000D01*
X79990000Y-133040000D02*
X81990000Y-133040000D01*
D12*
X80190000Y-133240000D02*
X80190000Y-137450000D01*
X80190000Y-133240000D02*
X86210000Y-133240000D01*
X80190000Y-139450000D02*
X80190000Y-141945000D01*
X81904500Y-143660000D02*
X80190000Y-141945000D01*
X84490000Y-143660000D02*
X81904500Y-143660000D01*
X84490000Y-143660000D02*
X86210000Y-141940000D01*
X86210000Y-133240000D02*
X86210000Y-137450000D01*
X86210000Y-139450000D02*
X86210000Y-141940000D01*
D11*
%TO.C,J4*%
X100000000Y-37000000D02*
G75*
G02*
X94000000Y-37000000I-3000000J0D01*
G01*
X94000000Y-37000000D02*
G75*
G02*
X100000000Y-37000000I3000000J0D01*
G01*
X113000000Y-37000000D02*
G75*
G02*
X97000000Y-37000000I-8000000J0D01*
G01*
X97000000Y-37000000D02*
G75*
G02*
X113000000Y-37000000I8000000J0D01*
G01*
X116000000Y-37000000D02*
G75*
G02*
X110000000Y-37000000I-3000000J0D01*
G01*
X110000000Y-37000000D02*
G75*
G02*
X116000000Y-37000000I3000000J0D01*
G01*
%TO.C,U5*%
X108390000Y-133190000D02*
X108390000Y-135190000D01*
X108390000Y-133190000D02*
X110390000Y-133190000D01*
D12*
X108590000Y-133390000D02*
X108590000Y-137600000D01*
X108590000Y-133390000D02*
X114610000Y-133390000D01*
X108590000Y-139600000D02*
X108590000Y-142095000D01*
X110304500Y-143810000D02*
X108590000Y-142095000D01*
X112890000Y-143810000D02*
X110304500Y-143810000D01*
X112890000Y-143810000D02*
X114610000Y-142090000D01*
X114610000Y-133390000D02*
X114610000Y-137600000D01*
X114610000Y-139600000D02*
X114610000Y-142090000D01*
%TD*%
M02*
