M48
; DRILL file {KiCad 9.0.2-9.0.2-0~ubuntu24.04.1} date 2025-07-04T20:20:08-0400
; FORMAT={-:-/ absolute / metric / decimal}
; #@! TF.CreationDate,2025-07-04T20:20:08-04:00
; #@! TF.GenerationSoftware,Kicad,Pcbnew,9.0.2-9.0.2-0~ubuntu24.04.1
; #@! TF.FileFunction,MixedPlating,1,2
FMAT,2
METRIC
; #@! TA.AperFunction,Plated,PTH,ViaDrill
T1C0.381
; #@! TA.AperFunction,Plated,PTH,ComponentDrill
T2C0.700
; #@! TA.AperFunction,Plated,PTH,ComponentDrill
T3C0.800
; #@! TA.AperFunction,Plated,PTH,ComponentDrill
T4C0.900
; #@! TA.AperFunction,Plated,PTH,ComponentDrill
T5C0.950
; #@! TA.AperFunction,Plated,PTH,ComponentDrill
T6C1.000
; #@! TA.AperFunction,Plated,PTH,ComponentDrill
T7C1.100
; #@! TA.AperFunction,Plated,PTH,ComponentDrill
T8C1.200
; #@! TA.AperFunction,Plated,PTH,ComponentDrill
T9C1.570
; #@! TA.AperFunction,Plated,PTH,ComponentDrill
T10C1.600
; #@! TA.AperFunction,NonPlated,NPTH,ComponentDrill
T11C1.000
; #@! TA.AperFunction,NonPlated,NPTH,ComponentDrill
T12C2.000
; #@! TA.AperFunction,NonPlated,NPTH,ComponentDrill
T13C2.200
; #@! TA.AperFunction,NonPlated,NPTH,ComponentDrill
T14C2.500
; #@! TA.AperFunction,NonPlated,NPTH,ComponentDrill
T15C3.200
%
G90
G05
T1
X36.0Y-56.0
X36.5Y-63.5
X37.0Y-37.5
X37.0Y-41.5
X37.0Y-70.5
X37.5Y-59.0
X39.0Y-34.5
X39.5Y-66.0
X39.5Y-73.5
X40.0Y-62.5
X44.5Y-26.5
X44.5Y-31.5
X44.5Y-58.5
X45.0Y-71.5
X45.5Y-81.5
X45.5Y-83.5
X46.5Y-29.0
X47.0Y-69.5
X48.0Y-83.5
X48.5Y-63.0
X50.4Y-27.8
X50.4Y-69.0
X50.5Y-32.0
X51.0Y-50.5
X51.0Y-55.5
X51.0Y-60.0
X51.0Y-63.0
X52.5Y-27.0
X52.6Y-70.4
X53.0Y-63.0
X53.5Y-83.5
X54.0Y-71.0
X54.0Y-87.0
X54.0Y-88.5
X54.0Y-90.0
X54.0Y-91.5
X54.5Y-32.0
X54.5Y-40.5
X55.5Y-50.5
X56.0Y-67.5
X56.0Y-72.5
X56.2Y-65.2
X56.5Y-27.0
X56.5Y-63.5
X56.5Y-77.5
X56.5Y-81.0
X57.5Y-54.5
X58.0Y-63.0
X58.5Y-30.0
X59.0Y-63.0
X59.0Y-70.2
X59.0Y-81.5
X59.5Y-86.0
X59.5Y-88.0
X60.0Y-58.0
X60.0Y-60.5
X60.0Y-63.0
X60.0Y-64.5
X60.0Y-66.0
X60.0Y-67.5
X60.0Y-68.5
X60.2Y-69.6
X60.5Y-39.5
X60.5Y-45.0
X60.5Y-52.0
X60.5Y-56.0
X60.5Y-75.0
X61.0Y-64.4
X61.0Y-66.0
X61.0Y-67.6
X61.0Y-68.6
X62.5Y-72.0
X62.6Y-74.2
X62.6Y-76.6
X62.6Y-78.2
X63.0Y-30.5
X63.0Y-34.5
X66.0Y-30.0
X66.0Y-32.5
X66.08Y-92.48
X69.0Y-29.5
X74.8Y-56.6
X75.2Y-51.4
X75.2Y-54.0
X76.4Y-89.0
X78.4Y-41.2
X83.0Y-139.6
X83.2Y-137.4
X83.2Y-142.8
X83.8Y-132.4
X84.0Y-85.0
X86.5Y-142.5
X87.5Y-141.5
X88.0Y-134.0
X88.0Y-135.5
X88.0Y-137.0
X88.0Y-138.5
X88.0Y-140.0
X90.4Y-87.0
X90.8Y-140.8
X91.2Y-137.6
X93.4Y-134.8
X94.4Y-132.6
X97.4Y-137.4
X97.4Y-139.6
X97.5Y-133.5
X98.4Y-132.4
X101.0Y-135.0
X101.0Y-136.5
X101.0Y-140.0
X101.0Y-141.5
X101.0Y-142.5
X107.8Y-135.0
X107.8Y-138.0
X107.8Y-141.4
X108.6Y-132.6
X109.0Y-143.6
X111.6Y-137.6
X111.6Y-139.8
X112.4Y-132.6
X115.0Y-132.6
X115.0Y-141.8
X115.6Y-134.4
X115.6Y-137.4
X115.6Y-140.0
X117.0Y-143.8
X119.8Y-87.0
X120.4Y-84.4
X122.0Y-139.2
X122.2Y-134.0
X122.2Y-136.6
X123.2Y-132.4
X126.2Y-137.6
X126.2Y-139.4
X126.2Y-142.8
X127.4Y-132.4
X129.0Y-142.8
X129.4Y-140.4
X129.8Y-142.0
X130.0Y-132.6
X130.0Y-134.8
X130.0Y-136.8
X130.0Y-138.8
X137.767Y-79.317
X138.357Y-81.857
X149.5Y-91.0
X149.5Y-92.5
X149.5Y-94.0
X149.5Y-95.5
X149.5Y-97.0
X151.0Y-92.5
X151.0Y-94.0
X151.0Y-96.0
X151.0Y-97.5
X151.4Y-80.4
X155.0Y-89.0
X155.0Y-91.0
X155.0Y-92.5
X155.0Y-94.0
X155.0Y-96.0
X156.5Y-91.0
X156.5Y-92.5
X156.5Y-94.0
T2
X48.0Y-100.75
X56.75Y-36.5
X58.75Y-74.5
X58.75Y-79.25
X68.45Y-119.75
X72.0Y-119.75
X81.9Y-129.5
X92.45Y-142.6
X106.85Y-129.45
X121.6Y-129.3
X138.95Y-119.75
X142.5Y-119.75
X151.835Y-49.61
X151.835Y-53.16
X151.835Y-65.66
X162.5Y-82.0
X162.75Y-100.5
X166.835Y-53.16
X166.835Y-64.91
X166.835Y-68.46
T3
X36.8Y-34.44
X36.8Y-44.6
X47.195Y-47.2
X47.72Y-40.8
X48.2Y-52.4
X48.2Y-57.4
X49.695Y-47.2
X52.9Y-102.6
X57.88Y-40.8
X57.9Y-102.6
X85.4Y-119.34
X85.4Y-129.5
X90.15Y-119.34
X90.15Y-129.5
X93.5Y-41.217
X93.5Y-43.757
X93.5Y-46.297
X93.5Y-48.837
X93.5Y-51.377
X93.5Y-53.917
X93.5Y-56.457
X93.5Y-58.997
X93.5Y-61.537
X93.5Y-64.077
X93.5Y-66.617
X93.5Y-69.157
X93.5Y-71.697
X93.5Y-74.237
X93.5Y-76.777
X93.5Y-79.317
X93.5Y-81.857
X93.5Y-84.397
X93.5Y-86.937
X93.5Y-89.477
X93.5Y-92.017
X93.5Y-94.557
X96.05Y-119.34
X96.05Y-129.5
X100.85Y-119.34
X100.85Y-129.5
X110.35Y-119.29
X110.35Y-129.45
X115.1Y-119.29
X115.1Y-129.45
X116.36Y-48.837
X116.36Y-51.377
X116.36Y-53.917
X116.36Y-56.457
X116.36Y-58.997
X116.36Y-61.537
X116.36Y-64.077
X116.36Y-66.617
X116.36Y-69.157
X116.36Y-71.697
X116.36Y-74.237
X116.36Y-76.777
X116.36Y-79.317
X116.36Y-81.857
X116.36Y-84.397
X116.36Y-86.937
X116.36Y-89.477
X116.36Y-92.017
X116.36Y-94.557
X116.364Y-41.22
X116.364Y-43.76
X116.364Y-46.3
X124.9Y-119.34
X124.9Y-129.5
X129.65Y-119.34
X129.65Y-129.5
X152.9Y-78.0
X155.78Y-50.52
X155.78Y-53.06
X155.78Y-55.6
X155.78Y-58.14
X155.78Y-60.68
X155.78Y-63.22
X155.78Y-65.76
X155.78Y-68.3
X157.9Y-78.0
X158.6Y-41.0
X163.4Y-50.52
X163.4Y-53.06
X163.4Y-55.6
X163.4Y-58.14
X163.4Y-60.68
X163.4Y-63.22
X163.4Y-65.76
X163.4Y-68.3
X163.6Y-41.0
X168.4Y-32.0
X168.4Y-37.0
T4
X40.4Y-28.16
X40.4Y-30.7
X42.6Y-62.7
X42.6Y-70.2
X48.7Y-30.85
X52.7Y-30.85
X56.7Y-30.85
T5
X56.99Y-85.0
X56.99Y-87.5
X56.99Y-90.0
X56.99Y-92.5
X56.99Y-95.0
X56.99Y-97.5
X153.0Y-85.0
X153.0Y-87.5
X153.0Y-90.0
X153.0Y-92.5
X153.0Y-95.0
X153.0Y-97.5
T6
X38.2Y-52.6
X43.2Y-52.6
X48.382Y-77.0
X53.382Y-77.0
X65.88Y-123.5
X68.42Y-123.5
X70.96Y-123.5
X73.5Y-123.5
X81.93Y-135.7
X81.93Y-141.2
X84.47Y-135.7
X84.47Y-141.2
X96.03Y-135.75
X96.03Y-141.25
X98.57Y-135.75
X98.57Y-141.25
X110.33Y-135.85
X110.33Y-141.35
X112.87Y-135.85
X112.87Y-141.35
X124.93Y-135.9
X124.93Y-141.4
X127.47Y-135.9
X127.47Y-141.4
X136.48Y-123.5
X139.02Y-123.5
X141.56Y-123.5
X144.1Y-123.5
T7
X41.2Y-34.72
X41.2Y-44.88
X45.51Y-36.8
X47.8Y-36.8
X50.09Y-36.8
X121.5Y-33.64
X121.5Y-43.8
T8
X46.7Y-26.6
X46.7Y-32.6
X58.7Y-26.6
X58.7Y-32.6
T9
X72.7Y-28.1
X72.7Y-101.0
X137.2Y-27.845
X137.2Y-100.745
T10
X56.2Y-44.98
X56.2Y-60.22
T11
X85.65Y-133.8
X99.75Y-133.85
X114.05Y-133.95
X128.65Y-134.0
T12
X97.0Y-37.0
X113.0Y-37.0
T13
X39.7Y-82.43
X39.7Y-100.43
X170.29Y-82.07
X170.29Y-100.07
T14
X81.3Y-138.45
X85.1Y-138.45
X95.4Y-138.5
X99.2Y-138.5
X109.7Y-138.6
X113.5Y-138.6
X124.3Y-138.65
X128.1Y-138.65
T15
X72.7Y-36.545
X72.7Y-92.155
X137.2Y-36.69
X137.2Y-92.3
M30
