%TF.GenerationSoftware,KiCad,Pcbnew,9.0.2-9.0.2-0~ubuntu24.04.1*%
%TF.CreationDate,2025-07-04T20:19:56-04:00*%
%TF.ProjectId,PCBbot,50434262-6f74-42e6-9b69-6361645f7063,rev?*%
%TF.SameCoordinates,Original*%
%TF.FileFunction,Soldermask,Bot*%
%TF.FilePolarity,Negative*%
%FSLAX46Y46*%
G04 Gerber Fmt 4.6, Leading zero omitted, Abs format (unit mm)*
G04 Created by KiCad (PCBNEW 9.0.2-9.0.2-0~ubuntu24.04.1) date 2025-07-04 20:19:56*
%MOMM*%
%LPD*%
G01*
G04 APERTURE LIST*
G04 Aperture macros list*
%AMRoundRect*
0 Rectangle with rounded corners*
0 $1 Rounding radius*
0 $2 $3 $4 $5 $6 $7 $8 $9 X,Y pos of 4 corners*
0 Add a 4 corners polygon primitive as box body*
4,1,4,$2,$3,$4,$5,$6,$7,$8,$9,$2,$3,0*
0 Add four circle primitives for the rounded corners*
1,1,$1+$1,$2,$3*
1,1,$1+$1,$4,$5*
1,1,$1+$1,$6,$7*
1,1,$1+$1,$8,$9*
0 Add four rect primitives between the rounded corners*
20,1,$1+$1,$2,$3,$4,$5,0*
20,1,$1+$1,$4,$5,$6,$7,0*
20,1,$1+$1,$6,$7,$8,$9,0*
20,1,$1+$1,$8,$9,$2,$3,0*%
G04 Aperture macros list end*
%ADD10C,1.600000*%
%ADD11RoundRect,0.250000X-0.750000X-0.750000X0.750000X-0.750000X0.750000X0.750000X-0.750000X0.750000X0*%
%ADD12C,2.000000*%
%ADD13RoundRect,0.249999X0.850001X-0.850001X0.850001X0.850001X-0.850001X0.850001X-0.850001X-0.850001X0*%
%ADD14C,2.200000*%
%ADD15R,1.717500X1.800000*%
%ADD16O,1.717500X1.800000*%
%ADD17C,1.500000*%
%ADD18R,1.700000X1.700000*%
%ADD19O,1.700000X1.700000*%
%ADD20C,1.700000*%
%ADD21RoundRect,0.250000X-0.550000X-0.550000X0.550000X-0.550000X0.550000X0.550000X-0.550000X0.550000X0*%
%ADD22C,3.200000*%
%ADD23R,3.000000X3.000000*%
%ADD24C,3.000000*%
%ADD25R,1.800000X1.800000*%
%ADD26C,1.800000*%
%ADD27RoundRect,0.250000X1.350000X-1.350000X1.350000X1.350000X-1.350000X1.350000X-1.350000X-1.350000X0*%
%ADD28RoundRect,0.250000X-0.725000X0.600000X-0.725000X-0.600000X0.725000X-0.600000X0.725000X0.600000X0*%
%ADD29O,1.950000X1.700000*%
%ADD30RoundRect,0.250000X0.725000X-0.600000X0.725000X0.600000X-0.725000X0.600000X-0.725000X-0.600000X0*%
%ADD31R,2.000000X1.200000*%
%ADD32O,2.000000X1.200000*%
%ADD33C,1.000000*%
%ADD34C,2.500000*%
%ADD35RoundRect,0.500000X-0.500000X0.500000X-0.500000X-0.500000X0.500000X-0.500000X0.500000X0.500000X0*%
%ADD36O,1.350000X1.200000*%
G04 APERTURE END LIST*
D10*
%TO.C,R1*%
X47720000Y-40800000D03*
X57880000Y-40800000D03*
%TD*%
D11*
%TO.C,C1*%
X38200000Y-52600000D03*
D12*
X43200000Y-52600000D03*
%TD*%
D13*
%TO.C,D3*%
X121500000Y-43800000D03*
D14*
X121500000Y-33640000D03*
%TD*%
D15*
%TO.C,Q1*%
X45510000Y-36800000D03*
D16*
X47800000Y-36800000D03*
X50090000Y-36800000D03*
%TD*%
D17*
%TO.C,TP11*%
X138950000Y-119750000D03*
%TD*%
D18*
%TO.C,U10*%
X65880000Y-123500000D03*
D19*
X68420000Y-123500000D03*
X70960000Y-123500000D03*
X73500000Y-123500000D03*
%TD*%
D17*
%TO.C,TP15*%
X151835000Y-49610000D03*
%TD*%
D13*
%TO.C,D4*%
X41200000Y-44880000D03*
D14*
X41200000Y-34720000D03*
%TD*%
D17*
%TO.C,TP1*%
X56750000Y-36500000D03*
%TD*%
D10*
%TO.C,R10*%
X124900000Y-119340000D03*
X124900000Y-129500000D03*
%TD*%
D12*
%TO.C,SW1*%
X58700000Y-32600000D03*
X58700000Y-26600000D03*
X46700000Y-32600000D03*
X46700000Y-26600000D03*
D20*
X56700000Y-30850000D03*
X52700000Y-30850000D03*
X48700000Y-30850000D03*
%TD*%
D21*
%TO.C,U7*%
X155780000Y-50520000D03*
D10*
X155780000Y-53060000D03*
X155780000Y-55600000D03*
X155780000Y-58140000D03*
X155780000Y-60680000D03*
X155780000Y-63220000D03*
X155780000Y-65760000D03*
X155780000Y-68300000D03*
X163400000Y-68300000D03*
X163400000Y-65760000D03*
X163400000Y-63220000D03*
X163400000Y-60680000D03*
X163400000Y-58140000D03*
X163400000Y-55600000D03*
X163400000Y-53060000D03*
X163400000Y-50520000D03*
%TD*%
%TO.C,C7*%
X52900000Y-102600000D03*
X57900000Y-102600000D03*
%TD*%
%TO.C,R7*%
X115100000Y-119290000D03*
X115100000Y-129450000D03*
%TD*%
D17*
%TO.C,TP18*%
X166835000Y-68460000D03*
%TD*%
D10*
%TO.C,C5*%
X168400000Y-32000000D03*
X168400000Y-37000000D03*
%TD*%
%TO.C,R4*%
X85400000Y-119340000D03*
X85400000Y-129500000D03*
%TD*%
D18*
%TO.C,U9*%
X136480000Y-123500000D03*
D19*
X139020000Y-123500000D03*
X141560000Y-123500000D03*
X144100000Y-123500000D03*
%TD*%
D17*
%TO.C,TP19*%
X166835000Y-64910000D03*
%TD*%
D10*
%TO.C,C3*%
X48200000Y-52400000D03*
X48200000Y-57400000D03*
%TD*%
D17*
%TO.C,TP7*%
X162500000Y-82000000D03*
%TD*%
D22*
%TO.C,BT2*%
X137200000Y-92300000D03*
X137200000Y-36690000D03*
D23*
X137200000Y-100745000D03*
D24*
X137200000Y-27845000D03*
%TD*%
D21*
%TO.C,C2*%
X47194888Y-47200000D03*
D10*
X49694888Y-47200000D03*
%TD*%
D11*
%TO.C,C10*%
X48382323Y-77000000D03*
D12*
X53382323Y-77000000D03*
%TD*%
D10*
%TO.C,L1*%
X42600000Y-62700000D03*
X42600000Y-70200000D03*
%TD*%
D17*
%TO.C,TP13*%
X68450000Y-119750000D03*
%TD*%
D25*
%TO.C,D1*%
X40400000Y-28160000D03*
D26*
X40400000Y-30700000D03*
%TD*%
D17*
%TO.C,TP6*%
X121600000Y-129300000D03*
%TD*%
D10*
%TO.C,R2*%
X36800000Y-44600000D03*
X36800000Y-34440000D03*
%TD*%
%TO.C,R5*%
X100850000Y-119340000D03*
X100850000Y-129500000D03*
%TD*%
D17*
%TO.C,TP20*%
X166835000Y-53160000D03*
%TD*%
%TO.C,TP17*%
X151835000Y-65660000D03*
%TD*%
%TO.C,TP12*%
X142500000Y-119750000D03*
%TD*%
D10*
%TO.C,R6*%
X96050000Y-119340000D03*
X96050000Y-129500000D03*
%TD*%
%TO.C,C6*%
X152900000Y-78000000D03*
X157900000Y-78000000D03*
%TD*%
D17*
%TO.C,TP4*%
X92450000Y-142600000D03*
%TD*%
%TO.C,TP3*%
X81900000Y-129500000D03*
%TD*%
%TO.C,TP2*%
X58750000Y-74500000D03*
%TD*%
%TO.C,TP14*%
X72000000Y-119750000D03*
%TD*%
%TO.C,TP10*%
X58750000Y-79250000D03*
%TD*%
D27*
%TO.C,D2*%
X56200000Y-60220000D03*
D22*
X56200000Y-44980000D03*
%TD*%
D14*
%TO.C,J2*%
X39700000Y-100430000D03*
X39700000Y-82430000D03*
D28*
X56990000Y-85000000D03*
D29*
X56990000Y-87500000D03*
X56990000Y-90000000D03*
X56990000Y-92500000D03*
X56990000Y-95000000D03*
X56990000Y-97500000D03*
%TD*%
D10*
%TO.C,C4*%
X158600000Y-41000000D03*
X163600000Y-41000000D03*
%TD*%
D14*
%TO.C,J3*%
X170290000Y-82070000D03*
X170290000Y-100070000D03*
D30*
X153000000Y-97500000D03*
D29*
X153000000Y-95000000D03*
X153000000Y-92500000D03*
X153000000Y-90000000D03*
X153000000Y-87500000D03*
X153000000Y-85000000D03*
%TD*%
D17*
%TO.C,TP16*%
X151835000Y-53160000D03*
%TD*%
D22*
%TO.C,BT1*%
X72700000Y-36545000D03*
X72700000Y-92155000D03*
D23*
X72700000Y-28100000D03*
D24*
X72700000Y-101000000D03*
%TD*%
D10*
%TO.C,R3*%
X90150000Y-119340000D03*
X90150000Y-129500000D03*
%TD*%
%TO.C,R8*%
X110350000Y-119290000D03*
X110350000Y-129450000D03*
%TD*%
D17*
%TO.C,TP9*%
X48000000Y-100750000D03*
%TD*%
%TO.C,TP5*%
X106850000Y-129450000D03*
%TD*%
%TO.C,TP8*%
X162750000Y-100500000D03*
%TD*%
D10*
%TO.C,R9*%
X129650000Y-119340000D03*
X129650000Y-129500000D03*
%TD*%
D31*
%TO.C,U8*%
X116360000Y-94557280D03*
D32*
X116360000Y-92017280D03*
X116360000Y-89477280D03*
X116360000Y-86937280D03*
X116360000Y-84397280D03*
X116360000Y-81857280D03*
X116360000Y-79317280D03*
X116360000Y-76777280D03*
X116360000Y-74237280D03*
X116360000Y-71697280D03*
X116360000Y-69157280D03*
X116360000Y-66617280D03*
X116360000Y-64077280D03*
X116360000Y-61537280D03*
X116360000Y-58997280D03*
X116360000Y-56457280D03*
X116360000Y-53917280D03*
X116360000Y-51377280D03*
X116360000Y-48837280D03*
X116363680Y-46300000D03*
X116363680Y-43760000D03*
X116363680Y-41220000D03*
X93500000Y-41217280D03*
X93500000Y-43757280D03*
X93500000Y-46297280D03*
X93500000Y-48837280D03*
X93500000Y-51377280D03*
X93500000Y-53917280D03*
X93500000Y-56457280D03*
X93500000Y-58997280D03*
X93500000Y-61537280D03*
X93500000Y-64077280D03*
X93500000Y-66617280D03*
X93500000Y-69157280D03*
X93500000Y-71697280D03*
X93500000Y-74237280D03*
X93500000Y-76777280D03*
X93500000Y-79317280D03*
X93500000Y-81857280D03*
X93500000Y-84397280D03*
X93500000Y-86937280D03*
X93500000Y-89477280D03*
X93500000Y-92017280D03*
X93500000Y-94557280D03*
%TD*%
D33*
%TO.C,U4*%
X99750000Y-133850000D03*
D34*
X99200000Y-138500000D03*
X95400000Y-138500000D03*
D35*
X96030000Y-135750000D03*
D12*
X98570000Y-135750000D03*
X98570000Y-141250000D03*
X96030000Y-141250000D03*
%TD*%
D33*
%TO.C,U6*%
X128650000Y-134000000D03*
D34*
X128100000Y-138650000D03*
X124300000Y-138650000D03*
D35*
X124930000Y-135900000D03*
D12*
X127470000Y-135900000D03*
X127470000Y-141400000D03*
X124930000Y-141400000D03*
%TD*%
D33*
%TO.C,U3*%
X85650000Y-133800000D03*
D34*
X85100000Y-138450000D03*
X81300000Y-138450000D03*
D35*
X81930000Y-135700000D03*
D12*
X84470000Y-135700000D03*
X84470000Y-141200000D03*
X81930000Y-141200000D03*
%TD*%
D36*
%TO.C,J4*%
X113000000Y-37000000D03*
X97000000Y-37000000D03*
%TD*%
D33*
%TO.C,U5*%
X114050000Y-133950000D03*
D34*
X113500000Y-138600000D03*
X109700000Y-138600000D03*
D35*
X110330000Y-135850000D03*
D12*
X112870000Y-135850000D03*
X112870000Y-141350000D03*
X110330000Y-141350000D03*
%TD*%
M02*
